<svg width="32" height="32" viewBox="0 0 42 42" fill="none" xmlns="http://www.w3.org/2000/svg">
<path d="M31.5556 2H10.4444C8.20484 2 6.05696 2.88968 4.47332 4.47332C2.88968 6.05696 2 8.20484 2 10.4444V31.5556C2 33.7952 2.88968 35.943 4.47332 37.5267C6.05696 39.1103 8.20484 40 10.4444 40H31.5556C33.7952 40 35.943 39.1103 37.5267 37.5267C39.1103 35.943 40 33.7952 40 31.5556V10.4444C40 8.20484 39.1103 6.05696 37.5267 4.47332C35.943 2.88968 33.7952 2 31.5556 2Z" stroke="white" stroke-width="4" stroke-linejoin="round"/>
<path d="M21 29.4444C23.2396 29.4444 25.3875 28.5548 26.9711 26.9711C28.5548 25.3875 29.4444 23.2396 29.4444 21C29.4444 18.7604 28.5548 16.6125 26.9711 15.0289C25.3875 13.4452 23.2396 12.5555 21 12.5555C18.7604 12.5555 16.6125 13.4452 15.0289 15.0289C13.4452 16.6125 12.5556 18.7604 12.5556 21C12.5556 23.2396 13.4452 25.3875 15.0289 26.9711C16.6125 28.5548 18.7604 29.4444 21 29.4444Z" stroke="white" stroke-width="4" stroke-linejoin="round"/>
<path d="M32.6111 11.5C33.171 11.5 33.708 11.2776 34.1039 10.8817C34.4998 10.4858 34.7222 9.94878 34.7222 9.38888C34.7222 8.82898 34.4998 8.29201 34.1039 7.8961C33.708 7.50019 33.171 7.27777 32.6111 7.27777C32.0512 7.27777 31.5142 7.50019 31.1183 7.8961C30.7224 8.29201 30.5 8.82898 30.5 9.38888C30.5 9.94878 30.7224 10.4858 31.1183 10.8817C31.5142 11.2776 32.0512 11.5 32.6111 11.5Z" fill="white"/>
</svg>
