<svg width="18" height="32" viewBox="0 0 24 42" fill="none" xmlns="http://www.w3.org/2000/svg">
<path d="M20.4 0H3.6C1.6125 0 0 1.76367 0 3.9375V38.0625C0 40.2363 1.6125 42 3.6 42H20.4C22.3875 42 24 40.2363 24 38.0625V3.9375C24 1.76367 22.3875 0 20.4 0ZM12 39.375C10.6725 39.375 9.6 38.202 9.6 36.75C9.6 35.298 10.6725 34.125 12 34.125C13.3275 34.125 14.4 35.298 14.4 36.75C14.4 38.202 13.3275 39.375 12 39.375ZM20.4 30.5156C20.4 31.057 19.995 31.5 19.5 31.5H4.5C4.005 31.5 3.6 31.057 3.6 30.5156V4.92188C3.6 4.38047 4.005 3.9375 4.5 3.9375H19.5C19.995 3.9375 20.4 4.38047 20.4 4.92188V30.5156Z" fill="white"/>
</svg>
