<svg width="32" height="32" viewBox="0 0 42 42" fill="none" xmlns="http://www.w3.org/2000/svg">
<path d="M28.6524 19.7484C28.6776 16.6152 26.0925 13.7424 22.89 13.3455L22.68 13.314C22.5194 13.2821 22.3564 13.2638 22.1928 13.2594C21.5355 13.2594 21.3612 13.734 21.315 14.0175C21.2888 14.1352 21.2864 14.257 21.3081 14.3757C21.3297 14.4944 21.3749 14.6075 21.441 14.7084C21.6594 15.0129 22.0416 15.0654 22.3482 15.1116C22.4385 15.1242 22.5246 15.1347 22.5939 15.1536C25.473 15.8151 26.4432 16.8588 26.9157 19.8051C26.9283 19.8786 26.9325 19.9668 26.9367 20.0613C26.9577 20.412 27.0018 21.1449 27.7662 21.1449C27.8292 21.1449 27.8964 21.1407 27.9678 21.1281C28.6797 21.0168 28.6566 20.3469 28.6461 20.0256C28.6408 19.948 28.6408 19.8701 28.6461 19.7925C28.6484 19.7786 28.6498 19.7646 28.6503 19.7505L28.6524 19.7484Z" fill="white"/>
<path d="M22.008 12.1947C22.092 12.201 22.176 12.2073 22.2411 12.2178C26.9661 12.9696 29.1417 15.2796 29.7444 20.1978C29.7549 20.2818 29.7549 20.3826 29.757 20.4918C29.7633 20.8761 29.7759 21.6741 30.6075 21.6909H30.6327C30.7469 21.697 30.861 21.6786 30.9675 21.6369C31.074 21.5953 31.1703 21.5313 31.2501 21.4494C31.5084 21.1701 31.4916 20.7564 31.4769 20.4204C31.4727 20.3406 31.4685 20.2629 31.4706 20.1957C31.5294 15.1662 27.3126 10.605 22.4448 10.437L22.386 10.4391C22.3672 10.4419 22.3483 10.4433 22.3293 10.4433C22.281 10.4433 22.2201 10.4391 22.1571 10.4349C22.0733 10.4272 21.9892 10.423 21.9051 10.4223C21.1302 10.4223 20.9832 10.9893 20.9643 11.3295C20.9223 12.1128 21.6552 12.1695 22.008 12.1947ZM29.5155 26.5524C29.4144 26.4732 29.3143 26.3927 29.2152 26.3109C28.6986 25.8825 28.1484 25.4877 27.6192 25.1055C27.5085 25.0259 27.3979 24.9461 27.2874 24.8661C26.607 24.3747 25.9959 24.1332 25.4184 24.1332C24.6414 24.1332 23.9631 24.5784 23.4024 25.4541C23.1546 25.8405 22.8522 26.0295 22.4826 26.0295C22.2246 26.0203 21.9716 25.9551 21.7413 25.8384C19.5468 24.8094 17.9781 23.2344 17.0814 21.1554C16.6488 20.1474 16.7874 19.4922 17.5518 18.9567C17.9844 18.6543 18.7908 18.0894 18.7341 17.0079C18.6711 15.7794 16.044 12.0834 14.9373 11.6634C14.4652 11.4852 13.9446 11.4837 13.4715 11.6592C12.201 12.1002 11.2875 12.8772 10.8318 13.8999C10.3908 14.8911 10.4118 16.0524 10.8906 17.262C12.2703 20.7606 14.2086 23.8098 16.6572 26.3256C19.0512 28.7889 21.9954 30.8049 25.4058 32.3211C25.7124 32.4576 26.0358 32.5311 26.271 32.5857L26.4705 32.6361C26.4978 32.644 26.5261 32.6482 26.5545 32.6487H26.5818C28.1862 32.6487 30.1119 31.1367 30.7041 29.4105C31.2228 27.8985 30.2757 27.153 29.5155 26.5545V26.5524ZM22.7178 16.191C22.4448 16.1973 21.8715 16.212 21.6699 16.8126C21.5775 17.094 21.588 17.3376 21.7035 17.5371C21.8736 17.8311 22.2012 17.9214 22.4973 17.9697C23.5725 18.1482 24.1269 18.7635 24.2361 19.9017C24.2886 20.4351 24.6351 20.8047 25.0803 20.8047C25.114 20.8054 25.1476 20.804 25.1811 20.8005C25.7166 20.7333 25.9749 20.328 25.9518 19.593C25.9602 18.8244 25.5717 17.955 24.9102 17.262C24.2466 16.5648 23.4465 16.1721 22.7178 16.191Z" fill="white"/>
<path d="M8.4 4.2C7.28609 4.2 6.2178 4.6425 5.43015 5.43015C4.6425 6.2178 4.2 7.28609 4.2 8.4V33.6C4.2 34.7139 4.6425 35.7822 5.43015 36.5698C6.2178 37.3575 7.28609 37.8 8.4 37.8H33.6C34.7139 37.8 35.7822 37.3575 36.5699 36.5698C37.3575 35.7822 37.8 34.7139 37.8 33.6V8.4C37.8 7.28609 37.3575 6.2178 36.5699 5.43015C35.7822 4.6425 34.7139 4.2 33.6 4.2H8.4ZM8.4 0H33.6C35.8278 0 37.9644 0.884998 39.5397 2.4603C41.115 4.03561 42 6.17218 42 8.4V33.6C42 35.8278 41.115 37.9644 39.5397 39.5397C37.9644 41.115 35.8278 42 33.6 42H8.4C6.17218 42 4.03561 41.115 2.4603 39.5397C0.884998 37.9644 0 35.8278 0 33.6V8.4C0 6.17218 0.884998 4.03561 2.4603 2.4603C4.03561 0.884998 6.17218 0 8.4 0Z" fill="white"/>
</svg>
